<svg width="21" height="22" viewBox="0 0 21 22" fill="none" xmlns="http://www.w3.org/2000/svg">
<path d="M16.3667 3.97253C16.8924 3.97253 17.3967 3.7637 17.7685 3.39198C18.1403 3.02026 18.3491 2.5161 18.3491 1.99042C18.3491 1.46473 18.1403 0.960567 17.7685 0.588849C17.3967 0.21713 16.8924 0.00830078 16.3667 0.00830078C15.8409 0.00830078 15.3367 0.21713 14.9649 0.588849C14.5931 0.960567 14.3842 1.46473 14.3842 1.99042C14.3842 2.5161 14.5931 3.02026 14.9649 3.39198C15.3367 3.7637 15.8409 3.97253 16.3667 3.97253ZM12.885 8.28776C12.9263 8.27124 12.9635 8.25472 13.0048 8.23821L12.3068 10.8604C12.0755 11.7317 12.3027 12.6608 12.9139 13.3256L15.8339 16.5094L16.7425 20.1474C16.9201 20.8535 17.6387 21.2871 18.345 21.1096C19.0512 20.932 19.4849 20.2135 19.3073 19.5074L18.3574 15.7042C18.2789 15.3821 18.1178 15.0889 17.8948 14.8453L15.8504 12.6154L16.6475 9.91062L17.044 10.8604C17.2257 11.2981 17.5603 11.6574 17.9857 11.8721L19.0884 12.4213C19.741 12.7475 20.5339 12.4832 20.8602 11.8308C21.1865 11.1783 20.9222 10.3855 20.2696 10.0593L19.3816 9.61743L18.7497 8.09781C18.0394 6.40062 16.3791 5.29394 14.537 5.29394C13.5954 5.29394 12.6661 5.49215 11.807 5.87206L11.4766 6.01659C10.1178 6.61948 9.07705 7.76745 8.61035 9.17558L8.50297 9.49768C8.27169 10.1914 8.64752 10.9388 9.33725 11.1701C10.027 11.4013 10.7787 11.0256 11.0099 10.3359L11.1173 10.0139C11.3527 9.30772 11.8731 8.73786 12.5505 8.43642L12.8809 8.29189L12.885 8.28776ZM11.646 13.8666L10.6134 16.4433L8.16017 18.8962C7.64391 19.4124 7.64391 20.2506 8.16017 20.7668C8.67643 21.283 9.51484 21.283 10.0311 20.7668L12.5794 18.219C12.7694 18.029 12.918 17.8019 13.0172 17.5541L13.616 16.0593L11.9351 14.2258C11.8318 14.1144 11.7368 13.9946 11.646 13.8707V13.8666ZM9.0977 11.327C8.77969 11.1453 8.37907 11.2527 8.19321 11.5706L6.87158 13.8583L4.62481 12.5617C3.99291 12.1983 3.18341 12.413 2.81996 13.0448L0.176701 17.6243C-0.186748 18.2561 0.0280173 19.0655 0.659922 19.4289L2.94799 20.7503C3.5799 21.1137 4.3894 20.899 4.75285 20.2672L7.39611 15.6877C7.45806 15.5803 7.50349 15.4729 7.5324 15.3573L9.34138 12.2313C9.5231 11.9134 9.41572 11.5128 9.0977 11.327Z" fill="#17C3B2"/>
</svg>
